<svg xmlns="http://www.w3.org/2000/svg" viewBox="0 0 1200 800" role="img" aria-labelledby="t d"><title id="t">Wewed bridal gown editorial illustration</title><desc id="d">Original Wewed category artwork in ivory, champagne, gold and espresso.</desc><defs><linearGradient id="bg" x1="0" y1="0" x2="1" y2="1"><stop stop-color="#1A1410"/><stop offset=".52" stop-color="#3A2B23"/><stop offset="1" stop-color="#8B6C43"/></linearGradient><radialGradient id="gl" cx="62%" cy="32%" r="62%"><stop stop-color="#F4DFC0" stop-opacity=".55"/><stop offset="1" stop-color="#F4DFC0" stop-opacity="0"/></radialGradient><filter id="grain"><feTurbulence type="fractalNoise" baseFrequency=".75" numOctaves="2" seed="7"/><feColorMatrix type="saturate" values="0"/><feComponentTransfer><feFuncA type="table" tableValues="0 .05"/></feComponentTransfer></filter></defs><rect width="1200" height="800" fill="url(#bg)"/><rect width="1200" height="800" fill="url(#gl)"/><path d="M556 160c22 6 35 27 35 51 0 28-15 53-29 77-7 12-11 24-11 39 0 16 5 29 12 42l122 220c27 49 15 81-52 96-80 18-223 16-302-7-48-14-57-42-34-86l124-223c9-17 13-33 10-51-4-24-19-43-19-70 0-39 26-76 65-88 20-6 59-6 79 0z" fill="#FBF6EE"/><path d="M472 291c42 23 83 24 121 2M439 429c73 39 148 40 224 4M399 562c108 55 216 56 326 3" fill="none" stroke="#D7BE91" stroke-width="5" stroke-linecap="round" opacity=".78"/><path d="M485 156c-6-58 25-91 75-91 45 0 77 31 77 76" fill="none" stroke="#BF9B5F" stroke-width="8" stroke-linecap="round"/><circle cx="784" cy="223" r="95" fill="none" stroke="#BF9B5F" stroke-width="2" opacity=".45"/><circle cx="784" cy="223" r="68" fill="none" stroke="#E7D9C4" stroke-width="1" opacity=".32"/><path d="M845 122l-122 207M936 645H815" stroke="#BF9B5F" stroke-width="3" opacity=".6"/><rect x="0" y="0" width="1200" height="800" filter="url(#grain)" opacity=".55"/></svg>