<svg xmlns="http://www.w3.org/2000/svg" viewBox="0 0 1200 800" role="img" aria-labelledby="t d"><title id="t">Wewed reception tablescape editorial illustration</title><desc id="d">Original Wewed category artwork in ivory, champagne, gold, sage and espresso.</desc><defs><linearGradient id="bg" x1="0" y1="0" x2="1" y2="1"><stop stop-color="#2A201A"/><stop offset=".5" stop-color="#5A4538"/><stop offset="1" stop-color="#B08D62"/></linearGradient><radialGradient id="c" cx="50%" cy="50%" r="50%"><stop stop-color="#FFDFA0" stop-opacity=".85"/><stop offset="1" stop-color="#FFDFA0" stop-opacity="0"/></radialGradient></defs><rect width="1200" height="800" fill="url(#bg)"/><ellipse cx="600" cy="540" rx="420" ry="160" fill="#FBF6EE"/><ellipse cx="600" cy="530" rx="340" ry="115" fill="#EDE1D1"/><circle cx="390" cy="510" r="78" fill="#F9F4EC" stroke="#BF9B5F" stroke-width="8"/><circle cx="600" cy="565" r="78" fill="#F9F4EC" stroke="#BF9B5F" stroke-width="8"/><circle cx="810" cy="510" r="78" fill="#F9F4EC" stroke="#BF9B5F" stroke-width="8"/><path d="M470 505h-95M725 505h95M560 603h80" stroke="#8C6A38" stroke-width="9" stroke-linecap="round"/><path d="M555 404c-35-58-26-105 23-146M645 404c39-57 33-109-17-151" stroke="#6A745C" stroke-width="18" stroke-linecap="round"/><path d="M600 426c-93-7-156-53-176-116 73-9 133 18 176 80 46-64 109-90 184-78-28 67-89 106-184 114z" fill="#8C8D71"/><circle cx="600" cy="374" r="34" fill="#F6E9D5"/><circle cx="535" cy="372" r="25" fill="#DCC7A6"/><circle cx="670" cy="367" r="27" fill="#EADAC2"/><circle cx="255" cy="265" r="150" fill="url(#c)"/><circle cx="980" cy="245" r="150" fill="url(#c)"/><path d="M260 160v150M980 140v170" stroke="#BF9B5F" stroke-width="5"/><circle cx="260" cy="160" r="10" fill="#F6D28C"/><circle cx="980" cy="140" r="10" fill="#F6D28C"/></svg>